PathFileType	4	(X/Y/Z)	C:\Users\Basilio\Documents\Thesis Gigler\squatting_fais\c3dfiles\054\SJ_pre2\markers_experimental.trc
DataRate	CameraRate	NumFrames	NumMarkers	Units	OrigDataRate	OrigDataStartFrame	OrigNumFrames
200.000000	200.000000	4	61	mm	200.000000	1047	2095
Frame#	Time	FHD			LBHD			RBHD			C7			T10			CLAV			LSHO			LUUPA			LMUPA			LDUPA			LLEP			LMEP			LRAD			LUL			LRFIN			RSHO			RUPA1			RMUPA			RDUPA			RLEP			RMEP			RRAD			RUL			RUFIN			LASI			RASI			USACR			LSACR			RSACR			LTHI1			LTHI2			LTHI3			LTHI4			LLFC			LMFC			LTIB1			LTIB2			LTIB3			LTIB4			LLMAL			LMMAL			LHEE			LMT1			LMT2			LMT5			RTHI			RTHI2			RTHI3			RTHI4			RLFC			RMFC			RTIB1			RTIB2			RTIB3			RTIB4			RLMAL			RMMAL			RHEE			RMT1			RMT2			RMT5			
		X1	Y1	Z1	X2	Y2	Z2	X3	Y3	Z3	X4	Y4	Z4	X5	Y5	Z5	X6	Y6	Z6	X7	Y7	Z7	X8	Y8	Z8	X9	Y9	Z9	X10	Y10	Z10	X11	Y11	Z11	X12	Y12	Z12	X13	Y13	Z13	X14	Y14	Z14	X15	Y15	Z15	X16	Y16	Z16	X17	Y17	Z17	X18	Y18	Z18	X19	Y19	Z19	X20	Y20	Z20	X21	Y21	Z21	X22	Y22	Z22	X23	Y23	Z23	X24	Y24	Z24	X25	Y25	Z25	X26	Y26	Z26	X27	Y27	Z27	X28	Y28	Z28	X29	Y29	Z29	X30	Y30	Z30	X31	Y31	Z31	X32	Y32	Z32	X33	Y33	Z33	X34	Y34	Z34	X35	Y35	Z35	X36	Y36	Z36	X37	Y37	Z37	X38	Y38	Z38	X39	Y39	Z39	X40	Y40	Z40	X41	Y41	Z41	X42	Y42	Z42	X43	Y43	Z43	X44	Y44	Z44	X45	Y45	Z45	X46	Y46	Z46	X47	Y47	Z47	X48	Y48	Z48	X49	Y49	Z49	X50	Y50	Z50	X51	Y51	Z51	X52	Y52	Z52	X53	Y53	Z53	X54	Y54	Z54	X55	Y55	Z55	X56	Y56	Z56	X57	Y57	Z57	X58	Y58	Z58	X59	Y59	Z59	X60	Y60	Z60	X61	Y61	Z61	

1048	5.235	124.7155227661133	1123.217163085938	-894.5098876953127	-37.48855209350587	1082.020385742188	-971.5783691406252	-59.94688415527345	1080.654174804688	-833.2442016601565	-109.9191970825196	1004.172668457031	-888.199157714844	-394.5210266113282	833.6807861328127	-923.3897705078127	-51.00376129150392	853.3586425781252	-898.6905517578127	-29.96812057495118	928.199890136719	-1049.301391601563	-154.7400054931641	926.5103759765627	-1240.576538085938	-160.3470306396485	876.8779296875002	-1251.504638671875	-196.2923431396485	902.2922973632815	-1292.46728515625	-244.6485137939454	860.9182128906252	-1319.367553710938	-306.7772216796876	915.0803833007815	-1285.410522460938	-427.6494445800782	736.6817626953126	-1167.1494140625	-417.5949707031251	674.2376098632814	-1209.788208007813	-388.715301513672	708.2138671875001	-1117.478881835938	-31.82790756225587	908.656921386719	-737.0316772460939	-193.9012908935547	893.8184204101565	-562.6295166015626	-212.471908569336	848.799743652344	-559.5538330078126	-252.5549316406251	879.5159301757815	-525.1963500976564	-300.7925415039063	858.5496826171877	-513.9814453125001	-342.8096923828126	917.3875122070315	-563.3641357421876	-474.9903564453126	746.6625366210939	-701.6675415039064	-467.209686279297	685.2683105468751	-652.3293457031251	-421.2159729003907	717.9452514648439	-733.1901855468751	-386.6472473144532	620.3850708007814	-1046.73779296875	-400.6865539550782	623.2888793945314	-787.2498779296877	-481.1626281738282	777.2768554687502	-927.0198364257815	-508.1874084472657	758.8916625976564	-955.0093383789065	-511.6277770996095	759.9104614257814	-897.9133911132815	-435.0586853027345	556.5925292968751	-1193.306030273438	-354.2929077148438	552.4689331054689	-1221.123168945313	-330.3856506347657	591.0924072265626	-1206.057739257813	-320.6238098144532	504.0689697265626	-1235.964477539063	-199.7100524902344	444.2401123046876	-1265.514038085938	-136.254379272461	428.3007202148439	-1144.03662109375	-204.2544250488282	285.4128723144532	-1229.842041015625	-282.7882995605469	271.4504394531251	-1272.081665039063	-246.3780975341797	251.8924102783204	-1254.076416015625	-280.0246276855469	184.289535522461	-1215.498657226563	-401.8650512695314	89.62966156005861	-1240.16162109375	-349.9223327636719	98.81205749511722	-1156.813110351563	-463.9798889160157	53.69424057006837	-1171.984741210938	-243.5989379882813	53.36688232421876	-1209.883666992188	-249.9858551025391	57.23122787475587	-1259.234375	-311.4500427246094	37.30649948120118	-1299.407104492188	-394.9849548339845	528.7597045898439	-631.2313842773439	-331.0078125000001	540.7791137695314	-611.2063598632814	-311.9064025878907	567.2893066406251	-618.8109741210939	-276.7330322265626	479.7983398437501	-591.2039794921876	-228.8310241699219	439.8504028320314	-570.8533935546876	-148.2862396240235	437.6755371093751	-686.3989257812501	-210.1654357910157	334.3992614746094	-564.6950073242189	-316.2377319335938	304.8540039062501	-563.4577636718751	-277.5738525390626	278.4854431152344	-562.3231201171876	-282.5015563964844	227.9247589111329	-587.9086914062501	-413.2835388183595	93.54035949707033	-597.7065429687501	-356.0917663574219	98.22469329833987	-671.9894409179689	-468.8060607910157	51.29489517211915	-667.4768676757814	-248.2476043701172	50.59051895141603	-614.5749511718751	-261.8548278808594	55.28249359130861	-568.7766113281251	-321.0409851074219	34.29847717285157	-533.5744628906251	
1049	5.24	124.7490539550782	1123.454467773438	-894.5000000000002	-37.40131378173829	1082.25830078125	-971.5386962890627	-59.9430503845215	1080.756713867188	-833.1726074218752	-109.9072723388672	1004.318908691406	-888.1436157226565	-394.4803771972657	833.789489746094	-923.2703857421877	-51.00717163085939	853.4380493164065	-898.5901489257815	-29.94754791259766	928.3575439453127	-1049.233154296875	-154.7078094482422	926.6831054687502	-1240.525390625	-160.3795013427735	876.985534667969	-1251.4228515625	-196.2271881103516	902.4498291015627	-1292.452514648438	-244.5546569824219	861.0970458984377	-1319.298950195313	-306.8000183105469	915.2058105468752	-1285.423095703125	-427.5756835937501	736.7919311523439	-1167.0537109375	-417.5352172851564	674.3974609375001	-1209.66259765625	-388.6560058593751	708.3324584960939	-1117.413208007813	-31.84314727783204	908.7544555664065	-736.9677124023439	-193.813217163086	893.9727783203127	-562.5495605468751	-212.3759002685547	848.9779052734377	-559.4917602539064	-252.4928436279297	879.6372070312502	-524.9864501953126	-300.7169494628907	858.6013183593752	-513.8686523437501	-342.6373291015626	917.440856933594	-563.2548217773439	-474.9514160156251	746.7512207031251	-701.5798950195314	-467.160858154297	685.3431396484376	-652.2160644531251	-421.2482910156251	717.9804077148439	-733.2318725585939	-386.9221801757814	620.4406127929689	-1046.475708007813	-400.3177795410157	623.6823120117189	-787.1533203125002	-481.1734619140626	777.506042480469	-926.8403930664065	-508.1926879882814	759.0405273437501	-954.9126586914065	-511.5510559082032	760.1011962890626	-897.8378906250002	-435.080047607422	556.7340087890626	-1193.2705078125	-354.3297119140626	552.5114746093751	-1221.034912109375	-330.4224243164063	591.2195434570314	-1205.998657226563	-320.6760559082032	504.1590270996095	-1235.876831054688	-199.7487945556641	444.2734985351564	-1265.442626953125	-136.3418579101563	428.3121032714845	-1143.973266601563	-204.3274536132813	285.3821105957032	-1229.803588867188	-282.9913635253907	271.4738159179688	-1272.049926757813	-246.3825378417969	251.8964538574219	-1254.07373046875	-280.0192260742188	184.292953491211	-1215.470336914063	-401.825653076172	89.59898376464845	-1240.199951171875	-349.9265747070313	98.79042816162112	-1156.818969726563	-463.9573669433595	53.68178176879884	-1172.034301757813	-243.6358489990235	53.36840438842775	-1209.916137695313	-250.0534973144532	57.24797821044923	-1259.203125	-311.3864135742188	37.31325149536134	-1299.454833984375	-394.9298400878907	528.8028564453126	-631.2493286132814	-330.9660034179688	540.7901611328126	-611.2614135742189	-311.8219604492188	567.3155517578126	-618.8208007812501	-276.7447814941407	479.7763671875001	-591.2442626953126	-228.8246612548829	439.847869873047	-570.9715576171876	-148.3020172119141	437.6368103027345	-686.4831542968751	-210.1439971923829	334.3948059082032	-564.7506103515626	-316.2275695800782	304.8377990722657	-563.4812011718751	-277.5313110351563	278.5268859863282	-562.3853759765626	-282.5151672363282	227.9222717285157	-587.9534912109376	-413.3016967773439	93.5345916748047	-597.7362670898439	-356.1283569335938	98.248649597168	-672.0487060546876	-468.8088989257814	51.29199600219728	-667.4964599609376	-248.295150756836	50.58208084106447	-614.5704956054689	-261.8495788574219	55.28833770751955	-568.7730712890626	-321.0392761230469	34.28441619873048	-533.5940551757814	
1050	5.245	124.7490158081055	1123.666137695313	-894.4226684570315	-37.39168167114259	1082.4423828125	-971.431091308594	-59.85998153686525	1080.909545898438	-833.1203613281252	-109.926010131836	1004.53857421875	-888.047058105469	-394.5078430175782	833.890319824219	-923.146179199219	-50.99330520629884	853.4895629882815	-898.5012207031252	-29.98495864868165	928.5196533203127	-1049.16650390625	-154.8826293945313	926.784118652344	-1240.334716796875	-160.3604888916016	877.189392089844	-1251.40234375	-196.3044433593751	902.5101318359377	-1292.350463867188	-244.5540161132813	861.2671508789065	-1319.258178710938	-306.7978515625001	915.2985839843752	-1285.3671875	-427.4943237304689	736.8999023437501	-1166.950927734375	-417.4397277832032	674.5241088867189	-1209.536376953125	-388.5711059570314	708.4478149414064	-1117.368774414063	-31.79232025146485	908.808776855469	-736.8859863281251	-193.760726928711	894.0193481445315	-562.4642944335939	-212.3085632324219	849.0733642578127	-559.3876342773439	-252.4609985351563	879.725280761719	-524.9633789062501	-300.6047668457032	858.750427246094	-513.7590332031251	-342.5615539550782	917.5074462890627	-563.1631469726564	-474.9076232910157	746.8894653320314	-701.4750976562501	-467.0999755859376	685.4469604492189	-652.1478271484376	-421.2460327148439	717.9747314453126	-733.2321777343751	-386.7102661132814	620.6486206054689	-1046.407470703125	-399.436004638672	625.3625488281251	-786.0198974609377	-481.1745605468751	777.8225708007815	-926.7134399414065	-507.743377685547	759.0325317382814	-954.9060058593752	-511.4620971679689	760.2493286132814	-897.7458496093752	-435.0551147460939	556.8958129882814	-1193.224853515625	-354.4186706542969	552.5976562500001	-1220.930297851563	-330.4417114257813	591.3533935546876	-1205.9326171875	-321.2333984375001	504.300750732422	-1235.584594726563	-199.8794097900391	444.3305969238282	-1265.370849609375	-136.4456176757813	428.2786254882814	-1143.947265625	-204.3988037109376	285.3349609375001	-1229.775512695313	-283.0139160156251	271.4795837402344	-1272.024169921875	-246.4540710449219	251.9717102050782	-1254.0263671875	-279.9891052246094	184.2943878173828	-1215.441772460938	-401.8212890625001	89.58058929443361	-1240.190795898438	-349.9627990722657	98.78187561035159	-1156.84716796875	-463.9837341308595	53.65795898437501	-1172.001220703125	-243.6068420410157	53.42425537109376	-1209.924194335938	-250.0365142822266	57.21686172485353	-1259.19384765625	-311.8134460449219	37.47376251220704	-1299.365844726563	-394.8616943359376	528.7982788085939	-631.2938842773439	-330.9114990234376	540.7803955078126	-611.2902221679689	-311.7796325683594	567.3289794921876	-618.8123168945314	-276.6990356445313	479.7631835937501	-591.2817382812501	-228.8218078613282	439.8345336914064	-570.9995727539064	-148.3175201416016	437.6182250976564	-686.6211547851564	-210.2476501464844	334.3907775878907	-564.8732910156251	-316.1689758300782	304.8106079101563	-563.5026245117189	-277.5039062500001	278.4982604980469	-562.4348144531251	-282.4601440429688	227.8865509033204	-587.9869384765626	-413.3167724609376	93.5171585083008	-597.7474365234376	-356.1330261230469	98.25239562988284	-672.0480957031251	-468.8280334472657	51.29107666015626	-667.4869995117189	-248.2484130859376	50.59970855712892	-614.5739135742189	-261.8371887207032	55.28850555419923	-568.7409057617189	-321.0013732910157	34.28815460205079	-533.5690307617189	
1051	5.25	124.7853622436524	1123.910888671875	-894.350524902344	-37.38717269897462	1082.569580078125	-971.3030395507815	-59.87785720825197	1081.037719726563	-833.058532714844	-109.896713256836	1004.718505859375	-887.940856933594	-394.4363098144532	834.014587402344	-923.0609130859377	-50.9807586669922	853.615417480469	-898.3811035156252	-29.96064567565919	928.682556152344	-1049.06640625	-153.1611328125	927.396423339844	-1240.890380859375	-160.3658752441407	877.3394775390627	-1251.368530273438	-196.2410888671876	902.6662597656252	-1292.293701171875	-244.524887084961	861.4102172851565	-1319.142456054688	-307.0785827636719	915.5740356445315	-1285.342529296875	-427.5127258300782	737.0155029296876	-1166.878173828125	-417.5085754394532	674.6430053710939	-1209.480590820313	-388.6097412109376	708.5772094726564	-1117.227905273438	-31.78950119018555	908.8703613281252	-736.8031005859376	-193.7437591552735	894.0667724609377	-562.3853759765626	-212.2659454345704	849.1455078125002	-559.2796020507814	-252.4010772705079	879.7987060546877	-524.7060546875001	-300.4665832519532	858.8509521484377	-513.7451782226564	-342.3626403808594	917.624694824219	-563.1425170898439	-474.9605712890626	747.0273437500001	-701.3501586914064	-467.076385498047	685.5426635742189	-651.9480590820314	-421.2784118652345	718.0102539062501	-733.2736816406251	-386.9571838378907	620.7438964843751	-1046.166625976563	-404.1750488281251	624.6191406250001	-783.9487304687502	-481.1737060546876	778.002868652344	-926.5468750000002	-508.1972961425782	759.3215942382814	-954.7111816406252	-512.7158813476564	760.8193359375001	-897.4244384765627	-435.1183166503907	557.1099853515626	-1193.12353515625	-354.3820190429688	552.6679687500001	-1220.831298828125	-330.4967956542969	591.4613647460939	-1205.915161132813	-320.8137512207032	504.3887634277345	-1235.702758789063	-199.9405212402344	444.3711853027345	-1265.330322265625	-136.4860992431641	428.3030700683595	-1143.869262695313	-204.3875274658204	285.3813171386719	-1229.727905273438	-282.9205322265626	271.4992675781251	-1272.022583007813	-246.4830932617188	251.9774169921876	-1254.00927734375	-280.0715942382813	184.246337890625	-1215.421875	-401.9050292968751	89.60195159912111	-1240.17138671875	-349.9620666503907	98.77626037597659	-1156.869995117188	-463.9779052734376	53.62649536132814	-1171.996948242188	-243.6705780029297	53.39757156372072	-1209.936889648438	-250.2261505126954	57.21764755249025	-1259.136108398438	-311.4974060058594	37.32677841186524	-1299.428588867188	-394.7782287597657	528.8142700195314	-631.2875976562501	-330.8935852050782	540.7862548828126	-611.3147583007814	-311.7136535644532	567.3165893554689	-618.8027343750001	-276.4525146484376	479.671112060547	-591.3718261718751	-228.7715148925782	439.8180541992189	-571.0432739257814	-148.2529754638672	437.5985107421876	-686.7211303710939	-210.1256866455079	334.3554382324219	-564.8917846679689	-316.1506652832032	304.7949523925782	-563.5487670898439	-277.4759826660157	278.4958801269532	-562.4520263671876	-282.4603576660157	227.9003906250001	-587.9906616210939	-413.2733154296876	93.5463104248047	-597.7410888671876	-356.1792297363282	98.20496368408206	-672.0620727539064	-468.8275451660157	51.23691558837892	-667.4517822265626	-248.3388366699219	50.54798126220705	-614.5657958984376	-261.8536682128907	55.2899856567383	-568.7750854492189	-321.0122375488282	34.28712463378907	-533.5838012695314	
